<svg width="420" height="220" viewBox="0 0 420 220" xmlns="http://www.w3.org/2000/svg" role="img" aria-labelledby="title desc">
  <title id="title">Logo All-ing</title>
  <desc id="desc">Marca All-ing con simbolo geometrico azul y naranja.</desc>

  <defs>
    <linearGradient id="orangeGrad" x1="0" y1="0" x2="1" y2="1">
      <stop offset="0%" stop-color="#FFA63D"/>
      <stop offset="100%" stop-color="#F57C00"/>
    </linearGradient>
    <linearGradient id="blueGrad" x1="0" y1="0" x2="1" y2="1">
      <stop offset="0%" stop-color="#2E3FAF"/>
      <stop offset="100%" stop-color="#1E2F97"/>
    </linearGradient>
  </defs>

  <path d="M93 134L161 18C166 10 178 12 180 21L210 136C212 145 202 151 194 147L144 122L106 145C98 150 88 142 93 134Z" fill="url(#orangeGrad)"/>
  <path d="M183 104L266 42C273 37 283 45 279 54L238 161C236 168 228 171 222 167L142 114C135 109 139 99 148 100L183 104Z" fill="url(#blueGrad)"/>

  <text x="82" y="197" font-size="54" font-style="italic" font-weight="700" fill="#2E3FAF" font-family="Segoe UI, Arial, sans-serif">All</text>
  <text x="164" y="197" font-size="54" font-style="italic" font-weight="700" fill="#F57C00" font-family="Segoe UI, Arial, sans-serif">-ing</text>
</svg>
