<svg width="220" height="180" viewBox="0 0 220 180" xmlns="http://www.w3.org/2000/svg" role="img" aria-labelledby="title desc">
  <title id="title">Isotipo Alling</title>
  <desc id="desc">Isotipo geometrico azul y naranja para la marca Alling.</desc>

  <defs>
    <linearGradient id="orangeGrad" x1="0" y1="0" x2="1" y2="1">
      <stop offset="0%" stop-color="#FFA63D"/>
      <stop offset="100%" stop-color="#F57C00"/>
    </linearGradient>
    <linearGradient id="blueGrad" x1="0" y1="0" x2="1" y2="1">
      <stop offset="0%" stop-color="#2E3FAF"/>
      <stop offset="100%" stop-color="#1E2F97"/>
    </linearGradient>
  </defs>

  <path d="M52 118L102 16C106 8 117 10 119 19L143 118C145 127 136 133 128 129L91 109L63 127C56 132 47 125 52 118Z" fill="url(#orangeGrad)"/>
  <path d="M122 92L184 30C190 24 200 31 196 40L165 141C163 148 155 151 149 147L89 102C82 97 86 88 95 89L122 92Z" fill="url(#blueGrad)"/>
</svg>
